# xmcd
#
# Track frame offsets: 
#        150
#        11830
#        33905
#        51807
#        72397
#        85752
#        98825
#        111917
#        130547
#        152635
#        171008
#        186957
#        204247
#        221180
#        237910
#
# Disc length: 3400 seconds
#
# Revision: 3
# Processed by: cddbd v1.5.2PL0 Copyright (c) Steve Scherf et al.
# Submitted via: ExactAudioCopyFreeDBPlugin 1.0
#
DISCID=c80d460f
DTITLE=Various Artist - DJ Rhettmatic: Exclusive Collection [CD1: Full Son
DTITLE=g Collection)
DYEAR=2004
DGENRE=Hip-Hop
TTITLE0=Jay Dee - Fuck The Police
TTITLE1=Geology - Communicate (feat. Talib Kweli and Sadat X)
TTITLE2=Geology - Let Me (feat. Truth Enola and Dabo)
TTITLE3=The Omen - It's Our World
TTITLE4=Tony Touch - We See Y'all
TTITLE5=The Beatnuts - Simple Murder
TTITLE6=Kool G. Rap - 'Bout That (feat. Ma Barker)
TTITLE7=Dilated Peoples - Bullet Train
TTITLE8=DJ Spinna - Rock (The Grand Finale)
TTITLE9=The Visionaries - Hindsight
TTITLE10=Writer's Block - 4U
TTITLE11=Noelle - The Craft (feat. Dilated Peoples)
TTITLE12=Pete Rock - Collector's Item (feat. Grap Luva)
TTITLE13=The Beat Junkies - Dividends
TTITLE14=Jurassic 5 - Linguistics
EXTD=
EXTT0=
EXTT1=
EXTT2=
EXTT3=
EXTT4=
EXTT5=
EXTT6=
EXTT7=
EXTT8=
EXTT9=
EXTT10=
EXTT11=
EXTT12=
EXTT13=
EXTT14=
PLAYORDER=
